# xmcd
# 
# Track frame offsets:
#     150
#     14717
#     33947
#     49951
#     63417
#     74653
#     88565
#     103569
#     120997
#     135168
#     150163
#     160992
#     188094
# 
# Disc length: 2813
# 
# Revision: 0
# Processed by: cddbd v1.5.2PL0 Copyright (c) Steve Scherf et al.
# Submitted via: fre:ac v1.0.31
# 
DISCID=a20afb0d
DTITLE=Slidawg And The Red Neck Ramblers - Red Neck Party Mix
DYEAR=0
DGENRE=Country
TTITLE0=Who's Ya Daddy
TTITLE1=You Can't fix Stupid
TTITLE2=Mulletman
TTITLE3=Backseat Driver
TTITLE4=Cotton Eyed Joe
TTITLE5=Man Of Constant Borrow
TTITLE6=Detour
TTITLE7=The Funky Chicken
TTITLE8=Getchasome
TTITLE9=Gettin' Piggy Widdit
TTITLE10=Hillbilly Hoedown
TTITLE11=The Funky Chicken Dance Mix
TTITLE12=Cotton Eyed Joe Dance Mix
EXTD=
EXTT0=
EXTT1=
EXTT2=
EXTT3=
EXTT4=
EXTT5=
EXTT6=
EXTT7=
EXTT8=
EXTT9=
EXTT10=
EXTT11=
EXTT12=
PLAYORDER=
